# xmcd
#
# Track frame offsets:
#	150
#	27803
#	48043
#	64215
#	84895
#	105448
#	128835
#	144693
#	161365
#	174500
#	198320
#	220705
#	238465
#	262328
#
# Disc length: 3793
#
# Revision: 4
# Processed by: cddbd v1.5.1PL0 Copyright (c) Steve Scherf et al.
# Submitted via: CDex 1.50beta9
# Normalized: r3:TDELIM( - )
#
DISCID=c00ecf0e
DTITLE=Various Artist - Absolute Blues
DYEAR=1900
DGENRE=Blues
TTITLE0=Gary Moore - Still Got The Blues (For You)
TTITLE1=John Lee Hooker and Bonnie Raitt - I'm In The Mood
TTITLE2=John Mayall - Without Her
TTITLE3=Jeff Healey Band - I Think I Love You Too Much
TTITLE4=Etta James - Out Of The Rain
TTITLE5=Larry McCray - Count On Me For Love
TTITLE6=Bonnie Raitt - The Road's My Middle Name
TTITLE7=Etta James - The Blues Don't Care
TTITLE8=Gary Moore - Walking By Myself
TTITLE9=John Mayall - Sensitive Kind
TTITLE10=Little Feat - Feelin's All Gone
TTITLE11=Eric Clapton - Before You Accuse Me
TTITLE12=Tina Turner - Undercover Agent For The Blues
TTITLE13=Colin James - Just Came Back
EXTD=
EXTT0=
EXTT1=
EXTT2=
EXTT3=
EXTT4=
EXTT5=
EXTT6=
EXTT7=
EXTT8=
EXTT9=
EXTT10=
EXTT11=
EXTT12=
EXTT13=
PLAYORDER=
